<svg xmlns="http://www.w3.org/2000/svg" width="800px" height="800px" viewBox="0 0 24 24" fill="none" stroke="red" stroke-width="1.5" stroke-linecap="round" stroke-linejoin="round" class="heart-icon">
  <path d="M20.5,4.609A5.811,5.811,0,0,0,16,2.5a5.75,5.75,0,0,0-4,1.455A5.75,5.75,0,0,0,8,2.5A5.811,5.811,0,0,0,3.5,4.609c-.953,1.156-1.95,3.249-1.289,6.66c1.055,5.447,8.966,9.917,9.3,10.1a1,1,0,0,0,.974,0c.336-.187,8.247-4.657,9.3-10.1C22.45,7.858,21.453,5.765,20.5,4.609Z" fill="red" class="heart-path"/>
</svg>